<?xml version="1.0" encoding="UTF-8"?>
<svg version="1.1" xmlns="http://www.w3.org/2000/svg" width="512" height="512">
<path d="M0 0 C1.32777466 0.00102722 1.32777466 0.00102722 2.68237305 0.0020752 C31.03833997 0.07429795 31.03833997 0.07429795 40.0625 3.25 C41.56229562 3.59328267 43.06915617 3.90743056 44.58203125 4.1875 C80.50210943 11.29336144 114.9253653 29.37465383 141.8046875 54.1796875 C143.82725254 56.03428866 145.89733984 57.80035161 148 59.5625 C185.70453928 92.56345491 206.82460756 144.34213592 210.62084961 193.52099609 C210.83239204 196.76251398 210.95670688 200.00347375 211.0625 203.25 C211.124375 205.11785156 211.124375 205.11785156 211.1875 207.0234375 C211.92266363 252.32789644 198.23345131 294.81865912 173.0625 332.25 C172.31500067 333.38274421 171.56759444 334.51554987 170.8203125 335.6484375 C167.47196585 340.60843648 167.47196585 340.60843648 166.0625 342.25 C165.4025 342.25 164.7425 342.25 164.0625 342.25 C163.84078125 342.79011719 163.6190625 343.33023437 163.390625 343.88671875 C161.62929088 347.02085741 159.26829115 349.4702987 156.8125 352.0625 C155.81022172 353.1345048 154.80891148 354.20741553 153.80859375 355.28125 C153.09098877 356.05082031 153.09098877 356.05082031 152.35888672 356.8359375 C150.80479456 358.53109791 149.33353122 360.28478882 147.875 362.0625 C144.61681662 365.88811981 140.92794793 369.05100861 137.0625 372.25 C136.56137695 372.67410156 136.06025391 373.09820312 135.54394531 373.53515625 C125.33916511 382.15012649 114.54381248 389.4420739 103.0625 396.25 C102.1044043 396.82210205 102.1044043 396.82210205 101.12695312 397.40576172 C66.4343763 417.8314401 27.23171658 423.20631657 -12.3125 423.375 C-13.07353027 423.37967285 -13.83456055 423.3843457 -14.61865234 423.38916016 C-19.814102 423.373398 -19.814102 423.373398 -20.9375 422.25 C-22.94533311 422.0354062 -24.95414572 421.8276435 -26.96606445 421.65551758 C-36.95196729 420.79633931 -46.32605439 419.09208285 -55.9375 416.25 C-56.78747559 416.00088867 -57.63745117 415.75177734 -58.51318359 415.49511719 C-70.72504237 411.87212835 -82.41415413 407.66845541 -93.9375 402.25 C-95.37597772 401.58393444 -96.81478739 400.91858539 -98.25390625 400.25390625 C-101.82235322 398.60106556 -105.38207404 396.93065394 -108.9375 395.25 C-108.9375 394.59 -108.9375 393.93 -108.9375 393.25 C-110.03771484 392.83041016 -110.03771484 392.83041016 -111.16015625 392.40234375 C-119.37779649 388.99277431 -126.26685872 383.60526441 -133.11499023 378.03344727 C-135.96269156 375.72870389 -138.66959606 373.8731311 -141.9375 372.25 C-143.40234375 370.76171875 -143.40234375 370.76171875 -144.875 368.9375 C-148.73802911 364.35381904 -152.94742843 360.18111666 -157.23022461 355.99487305 C-163.01948861 350.29452712 -167.94298592 344.03343169 -172.75 337.5 C-173.25208984 336.82839844 -173.75417969 336.15679687 -174.27148438 335.46484375 C-177.9375 330.48704294 -177.9375 330.48704294 -177.9375 328.25 C-178.5975 328.25 -179.2575 328.25 -179.9375 328.25 C-181.6110337 325.29550087 -183.27513985 322.3357982 -184.9375 319.375 C-185.41445312 318.53324219 -185.89140625 317.69148438 -186.3828125 316.82421875 C-186.83398438 316.01855469 -187.28515625 315.21289062 -187.75 314.3828125 C-188.16894531 313.63918457 -188.58789062 312.89555664 -189.01953125 312.12939453 C-189.9375 310.25 -189.9375 310.25 -189.9375 308.25 C-190.5975 307.92 -191.2575 307.59 -191.9375 307.25 C-192.85131836 305.61108398 -192.85131836 305.61108398 -193.77734375 303.49609375 C-194.11830078 302.72330078 -194.45925781 301.95050781 -194.81054688 301.15429688 C-195.16181641 300.34025391 -195.51308594 299.52621094 -195.875 298.6875 C-196.22240234 297.90052734 -196.56980469 297.11355469 -196.92773438 296.30273438 C-203.43322924 281.44178283 -207.85069447 266.15842766 -210.9375 250.25 C-211.09138184 249.48768066 -211.24526367 248.72536133 -211.40380859 247.93994141 C-218.38589021 211.97278582 -214.84353678 173.96481054 -202.77392578 139.63671875 C-202.12801079 137.79361747 -201.51743596 135.9381077 -200.921875 134.078125 C-192.13272817 108.82676663 -176.84036122 85.08932219 -157.9375 66.25 C-157.339375 65.46625 -156.74125 64.6825 -156.125 63.875 C-153.08111846 60.22234215 -149.552954 57.32534045 -145.9375 54.25 C-144.74898738 53.21209592 -143.561573 52.17293348 -142.375 51.1328125 C-141.10434125 50.02584123 -139.83350695 48.91907144 -138.5625 47.8125 C-137.9432666 47.26779053 -137.3240332 46.72308105 -136.68603516 46.16186523 C-132.1642454 42.25 -132.1642454 42.25 -129.9375 42.25 C-129.9375 41.59 -129.9375 40.93 -129.9375 40.25 C-128.6175 39.92 -127.2975 39.59 -125.9375 39.25 C-125.9375 38.59 -125.9375 37.93 -125.9375 37.25 C-124.93783203 36.72212891 -124.93783203 36.72212891 -123.91796875 36.18359375 C-119.13814177 33.62321091 -114.53283321 31.00861174 -110.0625 27.9375 C-90.21982098 15.19552507 -64.95808789 7.70611659 -41.9375 3.25 C-41.24446777 3.10191895 -40.55143555 2.95383789 -39.83740234 2.80126953 C-26.63870722 0.04151536 -13.42477263 -0.01489655 0 0 Z M-75.9375 80.25 C-77.8729148 82.64056942 -77.8729148 82.64056942 -78.9375 85.25 C-79.2675 85.91 -79.5975 86.57 -79.9375 87.25 C-80.06055351 89.70995151 -80.12585795 92.14046863 -80.140625 94.6015625 C-80.14632507 95.33442474 -80.15202515 96.06728699 -80.15789795 96.82235718 C-80.16735364 98.37748775 -80.17388419 99.93263841 -80.17773438 101.48779297 C-80.18737766 103.84509408 -80.21836779 106.20149968 -80.25 108.55859375 C-80.25653665 110.07291152 -80.26178452 111.5872355 -80.265625 113.1015625 C-80.2779718 113.7977066 -80.2903186 114.49385071 -80.30303955 115.21109009 C-80.27708269 121.03753479 -79.17781688 126.76947408 -75.15234375 131.2265625 C-72.16745248 132.60582443 -69.78033314 132.64775376 -66.5 132.625 C-64.83130859 132.63660156 -64.83130859 132.63660156 -63.12890625 132.6484375 C-59.52298984 132.19824965 -57.75227891 131.53851665 -54.9375 129.25 C-51.99867095 124.52569367 -51.49427132 120.44090289 -51.5390625 115 C-51.53619232 114.22366211 -51.53332214 113.44732422 -51.53036499 112.64746094 C-51.5283326 111.01366441 -51.53380453 109.37984309 -51.54638672 107.74609375 C-51.56245317 105.25725462 -51.54651096 102.77003913 -51.52734375 100.28125 C-51.52932633 98.68749645 -51.53317031 97.0937439 -51.5390625 95.5 C-51.53298981 94.76233398 -51.52691711 94.02466797 -51.5206604 93.26464844 C-51.58453783 88.52996347 -52.38912194 85.24956897 -54.9375 81.25 C-60.95723114 77.23684591 -69.42914491 77.26700392 -75.9375 80.25 Z M50.1875 81.6875 C47.41919372 85.53236984 47.88415277 89.90721388 47.859375 94.42578125 C47.85367493 95.22856003 47.84797485 96.03133881 47.84210205 96.85844421 C47.83265961 98.55722743 47.82612107 100.2560289 47.82226562 101.95483398 C47.81257496 104.54248376 47.78155142 107.12933396 47.75 109.71679688 C47.74346799 111.36978697 47.73821829 113.02278272 47.734375 114.67578125 C47.7220282 115.44473221 47.7096814 116.21368317 47.69696045 117.00593567 C47.72008234 122.63506866 48.80170265 126.87867478 52.8203125 131.09375 C57.74783706 133.63477312 63.70343659 132.93307877 69.0625 132.25 C72.40494783 130.65835818 74.38662233 128.60175533 76.0625 125.25 C76.19832508 122.31898854 76.27526479 119.41294862 76.30078125 116.48046875 C76.308853 115.60731522 76.31692474 114.73416168 76.32524109 113.83454895 C76.33908364 111.9843647 76.34980503 110.13415488 76.35766602 108.28393555 C76.3748692 105.45897803 76.41875166 102.63519379 76.46289062 99.81054688 C76.47301847 98.01302944 76.48153429 96.21550205 76.48828125 94.41796875 C76.50578934 93.57509811 76.52329742 92.73222748 76.54133606 91.86381531 C76.52657315 87.85717218 76.36960977 85.75590315 74.24682617 82.2590332 C70.65064814 78.95144977 66.82252255 78.39666855 62.0625 78 C57.73600795 78.360541 53.69384486 78.99930228 50.1875 81.6875 Z M-123.9375 115.25 C-127.83904338 121.41695567 -128.06203236 127.5684451 -128.07121277 134.72427368 C-128.07347833 135.45597287 -128.07574388 136.18767205 -128.07807809 136.94154394 C-128.08438549 139.38243227 -128.08359082 141.8232646 -128.08276367 144.26416016 C-128.08575728 146.01895214 -128.08916028 147.77374347 -128.09294128 149.52853394 C-128.10176703 154.28916664 -128.10411886 159.04978137 -128.10475707 163.81042147 C-128.10546862 166.78853701 -128.10760499 169.76664801 -128.11025429 172.74476242 C-128.11950448 183.14576253 -128.12358977 193.54674982 -128.12280273 203.94775391 C-128.12220271 213.62360988 -128.1327406 223.29940996 -128.1485464 232.97525179 C-128.16165214 241.29651323 -128.16698533 249.61775647 -128.16634732 257.93902814 C-128.16609314 262.90249368 -128.16890013 267.86590958 -128.17952538 272.82936478 C-128.18925697 277.50301028 -128.18925105 282.17655923 -128.18200874 286.85020828 C-128.18096902 288.55771019 -128.18328907 290.26521826 -128.1893692 291.97270966 C-128.92573199 309.73814412 -128.92573199 309.73814412 -121.9375 325.25 C-113.47074198 333.59580433 -104.8248102 334.40716602 -93.36732483 334.38371277 C-92.1292805 334.3871111 -92.1292805 334.3871111 -90.86622518 334.39057809 C-88.12051906 334.39687171 -85.37486289 334.39609173 -82.62915039 334.39526367 C-80.65244992 334.398258 -78.67575003 334.40166116 -76.6990509 334.40544128 C-71.3437161 334.41425619 -65.98839728 334.4166183 -60.63305593 334.41725707 C-57.28475673 334.41796883 -53.93646157 334.42010552 -50.58816338 334.42275429 C-38.9003257 334.4319984 -27.21249941 334.43609022 -15.5246582 334.43530273 C-4.63992023 334.43470173 6.24476822 334.44526038 17.12949365 334.4610464 C26.48513456 334.47413004 35.8407593 334.47948631 45.19640929 334.47884732 C50.77958231 334.47859264 56.36271128 334.48142769 61.94587517 334.49202538 C67.19653989 334.50172054 72.44711854 334.50177577 77.69778633 334.49450874 C79.62102001 334.49346477 81.54425909 334.49581464 83.46748352 334.5018692 C86.10020315 334.50961848 88.73262764 334.50492505 91.36534119 334.49723816 C92.49678972 334.5049535 92.49678972 334.5049535 93.65109581 334.51282471 C102.47698277 334.45618691 110.042144 332.75459732 117.0625 327.25 C122.75239925 321.40631969 124.51776052 315.17609898 124.44345093 307.21095276 C124.45047089 306.04051034 124.45047089 306.04051034 124.45763266 304.84642261 C124.46954245 302.2471299 124.46014131 299.64836835 124.45068359 297.04907227 C124.45475112 295.17926731 124.46009401 293.30946476 124.46661377 291.43966675 C124.48027259 286.37146381 124.47499435 281.3034444 124.46547651 276.23523831 C124.45787139 270.92585846 124.464928 265.61649413 124.46963501 260.30711365 C124.47509054 251.39050481 124.46790672 242.47397056 124.45361328 233.55737305 C124.43729219 223.2571062 124.4425722 212.95701755 124.4590925 202.65675503 C124.47271907 193.80559122 124.47462114 184.95448097 124.46677649 176.10331005 C124.46210578 170.82027863 124.46145848 165.53733089 124.47138596 160.25430489 C124.48007017 155.28594651 124.47400705 150.3178172 124.45670319 145.34948349 C124.45274591 143.52903943 124.45385935 141.708576 124.46049118 139.88813972 C124.46872707 137.39717901 124.45836087 134.90694565 124.44345093 132.41603088 C124.45014309 131.70093733 124.45683526 130.98584377 124.46373022 130.24908072 C124.38846861 123.7367425 122.68709998 117.07566954 118.0625 112.25 C117.4025 112.25 116.7425 112.25 116.0625 112.25 C116.0625 111.59 116.0625 110.93 116.0625 110.25 C112.6272952 107.95986347 111.077169 108.07157027 107.0625 108.25 C107.0625 107.59 107.0625 106.93 107.0625 106.25 C100.4625 106.25 93.8625 106.25 87.0625 106.25 C86.876875 109.9315625 86.876875 109.9315625 86.6875 113.6875 C85.6672149 130.73641241 85.6672149 130.73641241 80.0625 137.25 C72.65575312 142.47829191 65.2279303 143.8255515 56.29296875 142.67578125 C53.7141479 142.18350196 51.4488739 141.33471541 49.0625 140.25 C48.0725 140.25 47.0825 140.25 46.0625 140.25 C46.0625 139.59 46.0625 138.93 46.0625 138.25 C44.886875 137.1053125 44.886875 137.1053125 43.6875 135.9375 C35.68494304 127.74440597 38.59740569 118.01792517 38.0625 106.25 C11.6625 106.25 -14.7375 106.25 -41.9375 106.25 C-42.2675 113.51 -42.5975 120.77 -42.9375 128.25 C-47.03594548 136.44689095 -48.87770624 139.1978358 -57.140625 141.99609375 C-59.4087993 142.571068 -61.61659231 142.9564151 -63.9375 143.25 C-64.68128906 143.34539062 -65.42507812 143.44078125 -66.19140625 143.5390625 C-72.48480882 143.95497432 -76.93405539 141.99554296 -81.9375 138.25 C-87.51124854 133.12028175 -88.91432701 128.90597336 -89.25390625 121.38671875 C-89.29580078 120.50048828 -89.33769531 119.61425781 -89.38085938 118.70117188 C-89.42017578 117.78916016 -89.45949219 116.87714844 -89.5 115.9375 C-89.54318359 115.00615234 -89.58636719 114.07480469 -89.63085938 113.11523438 C-89.73647225 110.82695546 -89.83857752 108.53857628 -89.9375 106.25 C-92.77109844 106.19550772 -95.60362485 106.15609267 -98.4375 106.125 C-99.62472656 106.09986328 -99.62472656 106.09986328 -100.8359375 106.07421875 C-110.56248543 105.99449295 -117.24315187 107.89238697 -123.9375 115.25 Z " fill="#BF3A37" transform="translate(257.9375,43.75)"/>
<path d="M0 0 C0.80434969 -0.00538554 1.60869937 -0.01077108 2.43742329 -0.01631981 C5.13593259 -0.03064119 7.83395425 -0.02348545 10.53248596 -0.01637268 C12.46582942 -0.02207407 14.39916951 -0.02903743 16.33250427 -0.03717041 C21.58661617 -0.05514254 26.84056143 -0.05392581 32.09469485 -0.04822803 C36.47855559 -0.04514202 40.86238405 -0.05122207 45.2462402 -0.05726677 C55.58696261 -0.07132372 65.92760242 -0.06974098 76.26832581 -0.05836487 C86.94182414 -0.04688225 97.61507126 -0.06095916 108.28853649 -0.08776134 C117.44787316 -0.10990157 126.60713088 -0.11655951 135.76649243 -0.11068493 C141.23897602 -0.10731017 146.71129855 -0.10976491 152.18375969 -0.12693596 C157.32940119 -0.14237624 162.47466987 -0.13848192 167.62029648 -0.11963081 C169.50972865 -0.11593685 171.39918826 -0.11907683 173.2885952 -0.1295166 C175.86633202 -0.14267317 178.44282493 -0.13122703 181.02050781 -0.11352539 C181.76973194 -0.1231304 182.51895607 -0.1327354 183.29088396 -0.14263147 C188.15913171 -0.07375847 190.65985583 0.91658945 194.07374573 4.38768005 C195.34887736 6.93794333 195.21113159 8.74275885 195.22764587 11.5990448 C195.23624634 12.7037915 195.2448468 13.80853821 195.25370789 14.94676208 C195.26009781 16.77328308 195.26009781 16.77328308 195.26661682 18.63670349 C195.27888306 20.55389191 195.27888306 20.55389191 195.29139709 22.5098114 C195.31762264 26.75553781 195.3329265 31.00127411 195.34718323 35.24705505 C195.35254293 36.7086462 195.35792044 38.17023729 195.36331558 39.63182831 C195.38494622 45.71222962 195.40368239 51.79262827 195.41493797 57.87305832 C195.43117327 66.58633425 195.4643381 75.29916394 195.52133882 84.01227164 C195.56005156 90.13889438 195.57957228 96.26539784 195.58485854 102.39213967 C195.58851061 106.05115203 195.60051512 109.70968853 195.63296127 113.36856842 C195.66866137 117.45300783 195.66466776 121.5364898 195.65724182 125.62107849 C195.67364716 126.83066223 195.69005249 128.04024597 195.70695496 129.28648376 C195.69447723 130.96052277 195.69447723 130.96052277 195.68174744 132.66838074 C195.68671266 134.11630823 195.68671266 134.11630823 195.69177818 135.59348679 C194.84491279 139.42225914 193.19232712 142.06450438 190.07374573 144.38768005 C187.09292234 144.9895268 184.91974607 145.19408811 181.94458008 145.13612366 C181.1305033 145.14407247 180.31642652 145.15202128 179.47768074 145.16021097 C176.75174731 145.17945004 174.02789211 145.15583161 171.30201721 145.13230896 C169.34719569 145.13716521 167.39237913 145.14460427 165.43757629 145.1544342 C160.12965681 145.17325331 154.82247482 145.15440213 149.51461291 145.12776995 C143.96312003 145.10514876 138.41166366 145.11335526 132.86013794 145.11726379 C123.53807005 145.11902986 114.21629301 145.09686427 104.89430237 145.06004333 C94.11110699 145.01769513 83.32833753 145.01069073 72.54507583 145.02316725 C62.17758707 145.03454929 51.81024855 145.02327033 41.44278145 145.00082016 C37.02776885 144.99152241 32.61284804 144.98978292 28.19782829 144.99399185 C23.00123988 144.99775418 17.80508611 144.98157735 12.6085968 144.94987106 C10.69941061 144.94137327 8.79018036 144.93969242 6.88098335 144.94525146 C4.27881839 144.95167975 1.67795845 144.93357499 -0.92407227 144.90907288 C-1.68330901 144.91663152 -2.44254576 144.92419017 -3.22478968 144.93197787 C-6.58617695 144.87581135 -8.58716101 144.62695689 -11.36389065 142.667593 C-14.0976614 138.67827883 -14.05134461 134.76020895 -14.05996704 130.04333496 C-14.06423203 128.98494919 -14.06849701 127.92656342 -14.07289124 126.83610535 C-14.07243805 125.68531494 -14.07198486 124.53452454 -14.07151794 123.34886169 C-14.07487656 122.12881943 -14.07823517 120.90877716 -14.08169556 119.65176392 C-14.08955904 116.31290157 -14.09287258 112.97410142 -14.09351134 109.63523412 C-14.09422314 107.54748408 -14.0963599 105.45974053 -14.09900856 103.37199211 C-14.10825295 96.08367882 -14.11234449 88.79538378 -14.11155701 81.50706482 C-14.11095611 74.72070588 -14.12151262 67.9344264 -14.13730067 61.14808756 C-14.15038731 55.31439181 -14.15574045 49.48072201 -14.1551016 43.6470117 C-14.15484699 40.1659528 -14.15767791 36.68496459 -14.16827965 33.20392036 C-14.17978262 29.3212131 -14.17520692 25.43861446 -14.16917419 21.55589294 C-14.1747937 20.40712677 -14.18041321 19.2583606 -14.186203 18.07478333 C-14.13714221 5.66240377 -14.13714221 5.66240377 -10.34446907 1.76022339 C-6.95521293 -0.1634688 -3.79298519 -0.03033584 0 0 Z M12.16529846 25.47923279 C10.48262085 28.42119005 10.68431867 30.9908137 10.67530823 34.35643005 C10.67243805 35.03314758 10.66956787 35.70986511 10.66661072 36.40708923 C10.66457175 37.83601215 10.67009004 39.26496308 10.68263245 40.6938324 C10.69869062 42.8801773 10.68278039 45.06467384 10.66358948 47.2509613 C10.66557194 48.6402883 10.66941569 50.02961414 10.67530823 51.41893005 C10.67869202 52.68285583 10.68207581 53.94678162 10.68556213 55.24900818 C10.86001242 58.29104817 10.86001242 58.29104817 12.14942932 60.29832458 C15.15642826 62.00058661 17.83207961 61.77723151 21.26124573 61.78611755 C22.30961609 61.79042282 22.30961609 61.79042282 23.37916565 61.79481506 C24.85516674 61.79685431 26.33119494 61.79133408 27.80714417 61.77879333 C30.06589711 61.76273585 32.32286091 61.77864476 34.58155823 61.7978363 C36.01645801 61.79585384 37.45135668 61.79201011 38.88624573 61.78611755 C40.8449762 61.78104187 40.8449762 61.78104187 42.84327698 61.77586365 C45.97053366 61.61390685 45.97053366 61.61390685 47.99586487 60.28245544 C49.62828393 57.41287348 49.48101509 54.95555267 49.50733948 51.6728363 C49.51258133 51.02068649 49.51782318 50.36853668 49.52322388 49.69662476 C49.5296392 48.31899945 49.5283133 46.94131933 49.51979065 45.56370544 C49.5112871 43.46041304 49.54002934 41.35984422 49.5717926 39.25682068 C49.57340501 37.9163267 49.57282632 36.57582793 49.56983948 35.2353363 C49.5716925 34.01854187 49.57354553 32.80174744 49.57545471 31.54808044 C49.29332208 28.35876407 49.29332208 28.35876407 47.48439026 25.9907074 C44.20585896 23.81055381 41.92838878 23.88581378 38.00733948 23.8915863 C37.3320369 23.89013107 36.65673431 23.88867584 35.96096802 23.88717651 C34.53798595 23.88883185 33.1149853 23.90035253 31.69215393 23.92112732 C29.5145423 23.95013614 27.33935896 23.94172122 25.16163635 23.92869568 C23.77685891 23.93493211 22.39208913 23.94332231 21.00733948 23.9540863 C19.74977844 23.96383484 18.49221741 23.97358337 17.19654846 23.98362732 C14.16590346 24.17414072 14.16590346 24.17414072 12.16529846 25.47923279 Z M71.07374573 27.38768005 C70.33272902 30.61972846 70.33272902 30.61972846 70.47999573 34.35643005 C70.47995544 35.03314758 70.47991516 35.70986511 70.47987366 36.40708923 C70.48522884 37.83609823 70.50281243 39.26510646 70.53175354 40.6938324 C70.57360749 42.88045787 70.57282439 45.06400294 70.56593323 47.2509613 C70.27033832 54.00484119 70.27033832 54.00484119 72.13795471 60.29832458 C75.13936288 61.98735009 78.16206563 61.81520331 81.51515198 61.78611755 C82.60037392 61.79042282 82.60037392 61.79042282 83.70751953 61.79481506 C85.23479496 61.79685433 86.76209659 61.79133398 88.2893219 61.77879333 C90.63146548 61.76271287 92.97188964 61.77865698 95.3139801 61.7978363 C96.79770788 61.7958543 98.28143458 61.79201152 99.76515198 61.78611755 C100.46725296 61.79219025 101.16935394 61.79826294 101.89273071 61.80451965 C104.07727034 61.80752058 104.07727034 61.80752058 107.07374573 61.38768005 C110.32464591 56.51132979 109.48450641 50.79036635 109.49928284 45.08152771 C109.51120752 42.8946875 109.56041839 40.71064573 109.6108551 38.5243988 C109.62031674 37.13508965 109.62755302 35.74576318 109.63233948 34.35643005 C109.64579407 33.09250427 109.65924866 31.82857849 109.67311096 30.52635193 C109.38088633 27.27431113 109.38088633 27.27431113 106.94117737 25.47703552 C103.65596204 24.22896138 101.14860782 23.99990146 97.63624573 23.98924255 C96.41163635 23.98537537 95.18702698 23.98150818 93.92530823 23.9775238 C92.6542926 23.98912537 91.38327698 24.00072693 90.07374573 24.01268005 C88.8027301 24.00107849 87.53171448 23.98947693 86.22218323 23.9775238 C84.38526917 23.98332458 84.38526917 23.98332458 82.51124573 23.98924255 C81.39620667 23.99262634 80.2811676 23.99601013 79.13233948 23.99949646 C75.58437599 24.44978876 73.74927344 24.99304603 71.07374573 27.38768005 Z M132.07374573 26.38768005 C129.83856355 31.29539233 130.8467557 38.0415141 130.82374573 43.32518005 C130.80312073 44.50531677 130.78249573 45.68545349 130.76124573 46.90135193 C130.75608948 48.04023865 130.75093323 49.17912537 130.74562073 50.3525238 C130.73627502 51.39013855 130.72692932 52.4277533 130.71730042 53.49681091 C131.14680028 56.9801725 131.72046634 58.76065974 134.07374573 61.38768005 C137.42276135 62.09673007 137.42276135 62.09673007 141.29640198 61.91111755 C141.99768723 61.90641449 142.69897247 61.90171143 143.42150879 61.89686584 C145.66075526 61.87552292 147.89763251 61.81891575 150.13624573 61.76268005 C151.64729115 61.74617297 153.15836182 61.73182488 154.66944885 61.7197113 C161.58123719 62.02844556 161.58123719 62.02844556 168.07374573 60.38768005 C169.73546794 55.40251342 169.33798649 50.21227036 169.36891174 44.99095154 C169.38045342 43.63212184 169.40094027 42.27333824 169.43043518 40.91477966 C169.47310122 38.9490433 169.48667628 36.98274365 169.49952698 35.0165863 C169.5141095 33.8416864 169.52869202 32.6667865 169.54371643 31.45628357 C169.29278625 28.3388245 169.29278625 28.3388245 167.44337463 26.00218201 C164.36357194 23.90381654 162.44433656 23.89952469 158.73390198 23.92674255 C156.89215393 23.93254333 156.89215393 23.93254333 155.01319885 23.9384613 C153.73380432 23.96295349 152.45440979 23.98744568 151.13624573 24.01268005 C149.86071838 24.01396912 148.58519104 24.01525818 147.27101135 24.0165863 C139.38480158 23.86479682 139.38480158 23.86479682 132.07374573 26.38768005 Z M12.07374573 84.38768005 C9.82059979 88.89397192 10.80518715 95.033124 10.77857971 100.04563904 C10.76133638 102.31325826 10.71744363 104.57943039 10.6733551 106.84666443 C10.66323053 108.28610683 10.65471368 109.72556162 10.64796448 111.1650238 C10.63338196 112.47720886 10.61879944 113.78939392 10.60377502 115.14134216 C10.78570799 118.37690778 10.78570799 118.37690778 12.65870667 120.31199646 C15.91992804 121.76457848 18.57174589 121.79363653 22.14015198 121.8212738 C23.15310585 121.82913658 23.15310585 121.82913658 24.18652344 121.8371582 C25.60944751 121.84356337 27.03242464 121.84226084 28.45533752 121.83372498 C30.63313105 121.82519226 32.80831909 121.85402598 34.9858551 121.88572693 C36.37061994 121.88733858 37.75538942 121.88676211 39.14015198 121.8837738 C41.02649353 121.88655334 41.02649353 121.88655334 42.95094299 121.88938904 C46.07736922 121.65936008 46.07736922 121.65936008 47.98219299 119.79832458 C49.46017518 116.53426819 49.46255734 113.90187607 49.47218323 110.3212738 C49.47505341 109.64597122 49.47792358 108.97066864 49.48088074 108.27490234 C49.48291644 106.85195575 49.47742105 105.42898086 49.46485901 104.00608826 C49.4487711 101.82861386 49.464735 99.65298825 49.48390198 97.47557068 C49.48191995 96.09080096 49.47807709 94.7060324 49.47218323 93.3212738 C49.46879944 92.06371277 49.46541565 90.80615173 49.46192932 89.51048279 C49.33379175 86.4231426 49.33379175 86.4231426 47.69166565 84.48631287 C41.95939352 80.59386914 31.37012056 82.27353949 24.57374573 82.20018005 C23.79636047 82.18704773 23.01897522 82.17391541 22.21803284 82.16038513 C16.81947129 82.1189194 16.81947129 82.1189194 12.07374573 84.38768005 Z M72.07374573 84.38768005 C69.82428569 88.88660012 70.84652646 95.03970442 70.83351135 100.04563904 C70.82379782 102.31301954 70.7927718 104.57949644 70.76124573 106.84666443 C70.7547163 108.28611217 70.74946559 109.72556639 70.74562073 111.1650238 C70.73627502 112.47720886 70.72692932 113.78939392 70.71730042 115.14134216 C70.84931518 118.27716975 70.84931518 118.27716975 72.14503479 120.31419373 C75.15811236 121.9912193 77.83791575 121.77724663 81.26124573 121.78611755 C82.30961609 121.79042282 82.30961609 121.79042282 83.37916565 121.79481506 C84.85516674 121.79685431 86.33119494 121.79133408 87.80714417 121.77879333 C90.06589711 121.76273585 92.32286091 121.77864476 94.58155823 121.7978363 C96.01645801 121.79585384 97.45135668 121.79201011 98.88624573 121.78611755 C100.8449762 121.78104187 100.8449762 121.78104187 102.84327698 121.77586365 C105.96519902 121.60844414 105.96519902 121.60844414 107.99806213 120.31199646 C109.68037234 117.30247103 109.46331502 114.62246513 109.47218323 111.20018005 C109.47648849 110.15180969 109.47648849 110.15180969 109.48088074 109.08226013 C109.48291998 107.60625904 109.47739975 106.13023084 109.46485901 104.65428162 C109.44880152 102.39552867 109.46471043 100.13856487 109.48390198 97.87986755 C109.48191952 96.44496777 109.47807578 95.0100691 109.47218323 93.57518005 C109.46879944 92.26935974 109.46541565 90.96353943 109.46192932 89.6181488 C109.33208511 86.46019856 109.33208511 86.46019856 107.79884338 84.5009613 C102.54811108 81.11243324 95.62782729 82.20357857 89.63624573 82.20018005 C88.50380432 82.18793396 87.37136292 82.17568787 86.2046051 82.16307068 C85.11083557 82.16113708 84.01706604 82.15920349 82.89015198 82.1572113 C81.89443176 82.15310242 80.89871155 82.14899353 79.87281799 82.14476013 C76.88906365 82.40370785 74.74159345 83.04027922 72.07374573 84.38768005 Z M132.41847229 85.02024841 C130.63407117 88.16174036 130.71696736 90.41441339 130.74562073 94.0165863 C130.75077698 95.29855896 130.75593323 96.58053162 130.76124573 97.90135193 C130.77155823 98.56578308 130.78187073 99.23021423 130.79249573 99.91477966 C130.82369612 101.94694898 130.83347477 103.97834159 130.83937073 106.01072693 C130.73803263 112.80666904 130.73803263 112.80666904 132.07374573 119.38768005 C136.94913295 122.6379382 142.67313657 121.75956996 148.37989807 121.75828552 C150.56639617 121.76266533 152.75088515 121.79901158 154.93702698 121.8368988 C156.326343 121.84276605 157.71566859 121.84673606 159.10499573 121.84861755 C160.36892151 121.85683533 161.63284729 121.8650531 162.93507385 121.8735199 C166.07567266 121.66259517 166.07567266 121.66259517 167.98439026 119.80052185 C169.45854867 116.53536999 169.46255855 113.90142463 169.47218323 110.3212738 C169.47505341 109.64597122 169.47792358 108.97066864 169.48088074 108.27490234 C169.48291644 106.85195575 169.47742105 105.42898086 169.46485901 104.00608826 C169.4487711 101.82861386 169.464735 99.65298825 169.48390198 97.47557068 C169.48191995 96.09080096 169.47807709 94.7060324 169.47218323 93.3212738 C169.46879944 92.06371277 169.46541565 90.80615173 169.46192932 89.51048279 C169.33444419 86.42214911 169.33444419 86.42214911 167.68678284 84.48631287 C161.47808819 80.25759697 137.96475132 79.55004666 132.41847229 85.02024841 Z " fill="#BF3836" transform="translate(165.92625427246094,213.61231994628906)"/>
<path d="M0 0 C0.33 0 0.66 0 1 0 C1.04670923 16.48965133 1.08198355 32.97928121 1.10362434 49.4689827 C1.11393936 57.12534038 1.128004 64.78165697 1.15087891 72.43798828 C1.17080588 79.1108127 1.1837148 85.78360737 1.18817699 92.45646071 C1.19078555 95.99007714 1.19692145 99.52360842 1.21146011 103.05719757 C1.22755395 107.00071312 1.22798013 110.94414518 1.22705078 114.88769531 C1.23424133 116.060858 1.24143188 117.23402069 1.24884033 118.44273376 C1.246091 119.51682999 1.24334167 120.59092621 1.24050903 121.6975708 C1.24235262 122.6304253 1.24419621 123.5632798 1.24609566 124.52440262 C0.98736111 127.12714081 0.32029377 128.76333915 -1 131 C-2.22468303 106.66109684 -2.1204434 82.3287725 -2.06866455 57.96612549 C-2.0582663 52.54122312 -2.0538323 47.1163158 -2.04882812 41.69140625 C-2.03823888 31.12759154 -2.02126881 20.56379825 -2 10 C-1.34 10 -0.68 10 0 10 C0 6.7 0 3.4 0 0 Z " fill="#BC2F2D" transform="translate(383,229)"/>
<path d="M0 0 C0.66 0 1.32 0 2 0 C2.79903204 3.51153098 3.12228039 6.74276106 3.11352539 10.34106445 C3.11344986 11.3817659 3.11337433 12.42246735 3.11329651 13.4947052 C3.10813522 14.6063353 3.10297394 15.71796539 3.09765625 16.86328125 C3.09553383 18.58396065 3.09553383 18.58396065 3.09336853 20.33940125 C3.08777861 23.99712754 3.07522789 27.65479225 3.0625 31.3125 C3.0574837 33.79492099 3.05292102 36.27734294 3.04882812 38.75976562 C3.03781247 44.8398647 3.0210843 50.91992795 3 57 C2.67 57 2.34 57 2 57 C2 54.36 2 51.72 2 49 C1.34 48.67 0.68 48.34 0 48 C0 32.16 0 16.32 0 0 Z " fill="#BD2E2B" transform="translate(381,167)"/>
<path d="M0 0 C15.18 0.33 30.36 0.66 46 1 C46 1.33 46 1.66 46 2 C35.93908508 2.58811194 25.89278182 3.10030856 15.8125 3.125 C15.04115723 3.12951172 14.26981445 3.13402344 13.47509766 3.13867188 C8.12404151 3.12404151 8.12404151 3.12404151 7 2 C4.67182036 1.63239269 2.3381615 1.29758419 0 1 C0 0.67 0 0.34 0 0 Z " fill="#B21D1B" transform="translate(230,464)"/>
<path d="M0 0 C0.66 0.99 1.32 1.98 2 3 C1.67 3.33 1.34 3.66 1 4 C0.91148471 6.59359322 0.88474055 9.16039691 0.90234375 11.75390625 C0.90446617 12.91707619 0.90446617 12.91707619 0.90663147 14.10374451 C0.91224655 16.59003494 0.92480154 19.0762366 0.9375 21.5625 C0.94251306 23.24413933 0.9470763 24.92578006 0.95117188 26.60742188 C0.96222087 30.73831566 0.97949555 34.86914276 1 39 C0.34 39 -0.32 39 -1 39 C-1.02467917 33.76725612 -1.04285003 28.53454597 -1.05493164 23.30175781 C-1.05996711 21.52082733 -1.06679581 19.739901 -1.07543945 17.95898438 C-1.08753942 15.40233335 -1.09323609 12.84573688 -1.09765625 10.2890625 C-1.10281754 9.49005524 -1.10797882 8.69104797 -1.11329651 7.86782837 C-1.11387171 2.22774341 -1.11387171 2.22774341 0 0 Z " fill="#B52121" transform="translate(178,127)"/>
<path d="M0 0 C0.57105469 0.2165625 1.14210937 0.433125 1.73046875 0.65625 C10.81112521 3.77456764 19.60762126 3.74349545 29 2 C25.1377871 5.8622129 18.79071807 6.1120604 13.5 6.4375 C8.21643325 6.35363386 4.30952988 3.85264389 0 1 C0 0.67 0 0.34 0 0 Z " fill="#BC1F1E" transform="translate(176,182)"/>
<path d="M0 0 C0.33 0 0.66 0 1 0 C1.79773542 7.83007996 2.14500285 15.19636521 1 23 C0.67 23 0.34 23 0 23 C-1.33257403 7.25512528 -1.33257403 7.25512528 0 0 Z " fill="#C53330" transform="translate(382,216)"/>
<path d="M0 0 C5.56987857 -0.28809717 9.19670476 -0.20219683 14 3 C15.375 5.1875 15.375 5.1875 16 7 C15.113125 6.360625 14.22625 5.72125 13.3125 5.0625 C10.22489751 3.14003053 8.51589732 2.45075607 5 2 C3.33333333 1.66666667 1.66666667 1.33333333 0 1 C0 0.67 0 0.34 0 0 Z " fill="#B82523" transform="translate(318,121)"/>
<path d="M0 0 C1.07310858 3.27185553 0.89263102 5.42947592 0.0625 8.75 C-0.13214844 9.54921875 -0.32679687 10.3484375 -0.52734375 11.171875 C-0.68332031 11.77515625 -0.83929688 12.3784375 -1 13 C-1.33 13 -1.66 13 -2 13 C-2.05416188 11.39620659 -2.09286638 9.79188594 -2.125 8.1875 C-2.14820313 7.29417969 -2.17140625 6.40085938 -2.1953125 5.48046875 C-2 3 -2 3 0 0 Z " fill="#B12523" transform="translate(50,202)"/>
</svg>
